<svg width="177" height="31" viewBox="0 0 177 31" fill="none" xmlns="http://www.w3.org/2000/svg">
<path d="M16.4127 6.19995H12L18.2949 20.3616C18.343 20.4698 18.4984 20.4687 18.545 20.36L20.6386 15.4835L16.4127 6.19995Z" fill="white"/>
<path d="M31.3707 6.19995C31.3707 6.19995 24.6074 21.537 23.7015 22.9514C22.6486 24.5956 21.9508 25.2233 20.6595 25.4244C20.6475 25.4262 20.6387 25.4364 20.6387 25.4485C20.6387 25.462 20.6498 25.473 20.6634 25.473H24.7046C26.4552 25.473 27.7177 24.0255 28.4173 22.7472C29.2125 21.2943 35.8611 6.19995 35.8611 6.19995H31.3707Z" fill="white"/>
<path d="M47.65 8.98818V22.0118H51.9277C55.6331 22.0118 57.7947 19.4598 57.7947 15.4364C57.7947 11.3768 55.5877 8.98818 51.9458 8.98818H47.65ZM48.9397 10.2233H51.6915C54.843 10.2233 56.4778 12.0942 56.4778 15.4546C56.4778 18.8149 54.8339 20.7767 51.6915 20.7767H48.9397V10.2233Z" fill="white"/>
<path d="M70.4792 10.2233V8.98818H62.478V22.0118H70.4792V20.7767H63.7676V15.9359H69.8707V14.7008H63.7676V10.2233H70.4792Z" fill="white"/>
<path d="M83.6542 8.98818L79.5128 20.4406L75.3532 8.98818H73.9819L78.759 22.0118H80.2485L85.0347 8.98818H83.6542Z" fill="white"/>
<path d="M97.1743 10.2233V8.98818H89.1731V22.0118H97.1743V20.7767H90.4627V15.9359H96.5658V14.7008H90.4627V10.2233H97.1743Z" fill="white"/>
<path d="M101.858 22.0118H109.586V20.7767H103.147V8.98818H101.858V22.0118Z" fill="white"/>
<path d="M118.466 8.68848C114.951 8.68848 112.817 11.2133 112.817 15.5C112.817 19.7867 114.951 22.3115 118.466 22.3115C121.98 22.3115 124.124 19.7867 124.124 15.5C124.124 11.2133 121.98 8.68848 118.466 8.68848ZM118.466 9.92363C121.145 9.92363 122.798 11.9671 122.798 15.5C122.798 19.0329 121.145 21.0764 118.466 21.0764C115.786 21.0764 114.134 19.0329 114.134 15.5C114.134 11.9671 115.786 9.92363 118.466 9.92363Z" fill="white"/>
<path d="M128.716 8.98818V22.0118H130.006V16.9713H133.593C136.272 16.9713 137.925 15.2094 137.925 12.8117C137.925 10.5321 136.418 8.98818 133.92 8.98818H128.716ZM130.006 10.2233H133.702C135.446 10.2233 136.609 11.1951 136.609 12.8662C136.609 14.61 135.346 15.7361 133.53 15.7361H130.006V10.2233Z" fill="white"/>
<path d="M150.328 10.2233V8.98818H142.327V22.0118H150.328V20.7767H143.617V15.9359H149.72V14.7008H143.617V10.2233H150.328Z" fill="white"/>
<path d="M155.012 8.98818V22.0118H156.301V16.7261H159.989L162.731 22.0118H164.185L161.351 16.5717C163.04 16.1539 164.221 14.619 164.221 12.6846C164.221 10.5503 162.786 8.98818 160.525 8.98818H155.012ZM156.301 10.2233H160.307C161.832 10.2233 162.904 11.1951 162.904 12.7481C162.904 14.3557 161.76 15.5 160.116 15.5H156.301V10.2233Z" fill="white"/>
</svg>
